<svg width="82" height="32" viewBox="0 0 82 32" fill="none" xmlns="http://www.w3.org/2000/svg">
<path d="M67.0626 31.0812H55.9033V30.1825C59.3859 30.1825 59.8727 29.5084 59.8727 27.2241V4.9805C59.8727 2.69622 59.3859 2.02218 55.9033 2.02218V1.12344H66.6881C74.552 1.12344 81.6295 5.80434 81.6295 16.2521C81.6295 26.2879 75.0763 31.0812 67.0626 31.0812ZM66.6132 29.5458C73.7656 29.5458 77.2108 23.8913 77.2108 16.5142C77.2108 7.93883 72.5299 2.65878 66.6507 2.65878C65.8268 2.65878 65.1153 2.77112 64.8157 2.88346C64.3289 2.9958 64.1042 3.33283 64.1042 3.85709V27.9356C64.1042 29.1714 64.9655 29.5458 66.6132 29.5458Z" fill="#402824"/>
<path d="M53.8236 24.116H54.7224C54.0109 28.1977 52.6253 31.4182 48.993 31.4182C47.158 31.4182 45.4729 30.5569 43.7878 28.8718C41.7282 30.7816 39.3316 31.6429 36.523 31.6429C31.917 31.6429 27.7979 29.0965 27.7979 23.9662C27.7979 19.8096 30.5315 17.1883 34.9877 14.7916C33.8643 12.1329 33.2277 9.73626 33.2277 7.56433C33.2277 2.54641 36.8601 0 40.4924 0C44.4618 0 46.1095 2.73364 46.147 5.13026C46.1844 8.80009 43.0014 12.0954 39.1818 14.6793C39.8558 16.0648 40.6797 17.6002 41.7282 19.3602C42.8142 21.2325 43.9376 23.0675 45.1359 24.6028C46.1844 22.8053 47.0832 20.5959 47.7946 18.087C48.3189 15.7278 48.2066 15.2036 45.398 15.2036V14.3423H53.7487V15.2036C51.09 15.2036 50.2662 15.7278 49.6296 18.0495C48.6185 21.27 47.4951 23.8539 46.1844 25.876C47.57 27.4113 48.993 28.385 50.4159 28.385C52.0636 28.385 53.0747 27.0369 53.8236 24.116ZM40.8295 1.57278C38.4329 1.57278 36.8601 3.55748 36.8601 6.81539C36.8601 8.53796 37.3094 10.4852 38.3954 12.9567C41.2414 10.8222 43.7504 8.08859 43.7504 5.01792C43.7504 2.95833 42.7393 1.57278 40.8295 1.57278ZM32.0668 23.3296C32.0668 27.8607 34.8379 29.6956 37.8337 29.6956C39.6312 29.6956 41.2414 28.9841 42.6644 27.6735C41.2039 25.9509 39.7061 23.6666 38.0584 20.8206C37.2345 19.3602 36.4856 17.9746 35.849 16.6265C33.1154 18.6487 32.0668 20.5585 32.0668 23.3296Z" fill="#402824"/>
<path d="M14.7542 0.674011L23.5917 27.4113C24.3781 29.6956 25.2019 30.1824 27.636 30.1824V31.0811H16.2521V30.1824C19.8845 30.1824 19.9219 29.5832 19.2478 27.3738L17.4504 21.607H7.41454L5.57963 27.4113C4.86813 29.5832 4.90558 30.1824 8.46306 30.1824V31.0811H0V30.1824C2.35917 30.1824 3.18301 29.6956 3.93195 27.4113L12.6946 0.674011H14.7542ZM12.395 6.0664L7.90135 20.1465H16.9636L12.5448 6.0664H12.395Z" fill="#402824"/>
</svg>
